<svg xmlns="http://www.w3.org/2000/svg" width="20" height="20" viewBox="0 0 20 20" fill="none">
  <path d="M18.6217 17.2568L14.484 13.1271C14.3814 13.0589 14.2789 12.9906 14.1762 12.9906H13.7317C14.7918 11.7619 15.4757 10.1238 15.4757 8.34898C15.4757 4.45819 12.2612 1.25 8.36285 1.25C4.43026 1.25 1.25 4.45819 1.25 8.34898C1.25 12.2739 4.43026 15.448 8.36285 15.448C10.1411 15.448 11.7483 14.7995 13.0136 13.7415V14.1851C13.0136 14.2876 13.0478 14.3899 13.1161 14.4924L17.2539 18.6221C17.4249 18.7926 17.6985 18.7926 17.8353 18.6221L18.6217 17.837C18.7927 17.7005 18.7927 17.4275 18.6217 17.2568ZM8.36285 13.8098C5.31937 13.8098 2.89143 11.3865 2.89143 8.34898C2.89143 5.34557 5.31937 2.88823 8.36285 2.88823C11.3721 2.88823 13.8343 5.34557 13.8343 8.34898C13.8343 11.3865 11.3721 13.8098 8.36285 13.8098Z" fill="#939393"/>
</svg>